<mxfile host="app.diagrams.net" agent="Mozilla/5.0 (Windows NT 10.0; Win64; x64) AppleWebKit/537.36 (KHTML, like Gecko) Chrome/139.0.0.0 Safari/537.36" version="28.1.2">
  <diagram name="페이지-1" id="0R_AAVM3dPf6Bq4s2uPh">
    <mxGraphModel dx="1276" dy="784" grid="1" gridSize="10" guides="1" tooltips="1" connect="1" arrows="1" fold="1" page="1" pageScale="1" pageWidth="1654" pageHeight="1169" math="0" shadow="0">
      <root>
        <mxCell id="0" />
        <mxCell id="1" parent="0" />
        <mxCell id="3K0jsrOyIcbmeQvyOcUT-1" value="게시판 서비스" style="shape=umlFrame;whiteSpace=wrap;html=1;pointerEvents=0;width=130;height=20;" vertex="1" parent="1">
          <mxGeometry x="160" y="160" width="700" height="610" as="geometry" />
        </mxCell>
        <mxCell id="3K0jsrOyIcbmeQvyOcUT-2" value="회원가입" style="rounded=1;whiteSpace=wrap;html=1;" vertex="1" parent="1">
          <mxGeometry x="200" y="300" width="120" height="60" as="geometry" />
        </mxCell>
        <mxCell id="3K0jsrOyIcbmeQvyOcUT-17" style="rounded=0;orthogonalLoop=1;jettySize=auto;html=1;exitX=0;exitY=0.5;exitDx=0;exitDy=0;endArrow=none;endFill=0;entryX=0.5;entryY=0.5;entryDx=0;entryDy=0;entryPerimeter=0;" edge="1" parent="1" source="3K0jsrOyIcbmeQvyOcUT-3" target="3K0jsrOyIcbmeQvyOcUT-12">
          <mxGeometry relative="1" as="geometry">
            <mxPoint x="80" y="450" as="targetPoint" />
          </mxGeometry>
        </mxCell>
        <mxCell id="3K0jsrOyIcbmeQvyOcUT-3" value="게시판 보기" style="rounded=1;whiteSpace=wrap;html=1;" vertex="1" parent="1">
          <mxGeometry x="200" y="420" width="120" height="60" as="geometry" />
        </mxCell>
        <mxCell id="3K0jsrOyIcbmeQvyOcUT-15" style="rounded=0;orthogonalLoop=1;jettySize=auto;html=1;exitX=1;exitY=0.5;exitDx=0;exitDy=0;endArrow=none;endFill=0;" edge="1" parent="1" source="3K0jsrOyIcbmeQvyOcUT-4" target="3K0jsrOyIcbmeQvyOcUT-5">
          <mxGeometry relative="1" as="geometry" />
        </mxCell>
        <mxCell id="3K0jsrOyIcbmeQvyOcUT-16" style="rounded=0;orthogonalLoop=1;jettySize=auto;html=1;exitX=1;exitY=1;exitDx=0;exitDy=0;entryX=0;entryY=0.5;entryDx=0;entryDy=0;endArrow=none;endFill=0;" edge="1" parent="1" source="3K0jsrOyIcbmeQvyOcUT-4" target="3K0jsrOyIcbmeQvyOcUT-6">
          <mxGeometry relative="1" as="geometry" />
        </mxCell>
        <mxCell id="3K0jsrOyIcbmeQvyOcUT-4" value="회원 로그인" style="rounded=1;whiteSpace=wrap;html=1;" vertex="1" parent="1">
          <mxGeometry x="280" y="190" width="120" height="60" as="geometry" />
        </mxCell>
        <mxCell id="3K0jsrOyIcbmeQvyOcUT-27" style="edgeStyle=orthogonalEdgeStyle;rounded=0;orthogonalLoop=1;jettySize=auto;html=1;exitX=1;exitY=0.5;exitDx=0;exitDy=0;entryX=0;entryY=0.5;entryDx=0;entryDy=0;" edge="1" parent="1" source="3K0jsrOyIcbmeQvyOcUT-5" target="3K0jsrOyIcbmeQvyOcUT-25">
          <mxGeometry relative="1" as="geometry" />
        </mxCell>
        <mxCell id="3K0jsrOyIcbmeQvyOcUT-5" value="인증" style="rounded=1;whiteSpace=wrap;html=1;" vertex="1" parent="1">
          <mxGeometry x="670" y="190" width="120" height="60" as="geometry" />
        </mxCell>
        <mxCell id="3K0jsrOyIcbmeQvyOcUT-6" value="로그인 실패" style="rounded=1;whiteSpace=wrap;html=1;" vertex="1" parent="1">
          <mxGeometry x="670" y="300" width="120" height="60" as="geometry" />
        </mxCell>
        <mxCell id="3K0jsrOyIcbmeQvyOcUT-21" style="rounded=0;orthogonalLoop=1;jettySize=auto;html=1;exitX=0;exitY=0.5;exitDx=0;exitDy=0;endArrow=none;endFill=0;" edge="1" parent="1" source="3K0jsrOyIcbmeQvyOcUT-7" target="3K0jsrOyIcbmeQvyOcUT-3">
          <mxGeometry relative="1" as="geometry" />
        </mxCell>
        <mxCell id="3K0jsrOyIcbmeQvyOcUT-7" value="게시판 정렬" style="rounded=1;whiteSpace=wrap;html=1;" vertex="1" parent="1">
          <mxGeometry x="440" y="400" width="120" height="60" as="geometry" />
        </mxCell>
        <mxCell id="3K0jsrOyIcbmeQvyOcUT-22" style="rounded=0;orthogonalLoop=1;jettySize=auto;html=1;exitX=0;exitY=0.5;exitDx=0;exitDy=0;entryX=1;entryY=0.5;entryDx=0;entryDy=0;endArrow=none;endFill=0;" edge="1" parent="1" source="3K0jsrOyIcbmeQvyOcUT-8" target="3K0jsrOyIcbmeQvyOcUT-3">
          <mxGeometry relative="1" as="geometry" />
        </mxCell>
        <mxCell id="3K0jsrOyIcbmeQvyOcUT-8" value="게시판 검색" style="rounded=1;whiteSpace=wrap;html=1;" vertex="1" parent="1">
          <mxGeometry x="440" y="480" width="120" height="60" as="geometry" />
        </mxCell>
        <mxCell id="3K0jsrOyIcbmeQvyOcUT-18" style="rounded=0;orthogonalLoop=1;jettySize=auto;html=1;exitX=0;exitY=0.5;exitDx=0;exitDy=0;endArrow=none;endFill=0;entryX=0.5;entryY=0.5;entryDx=0;entryDy=0;entryPerimeter=0;" edge="1" parent="1" source="3K0jsrOyIcbmeQvyOcUT-9" target="3K0jsrOyIcbmeQvyOcUT-12">
          <mxGeometry relative="1" as="geometry">
            <mxPoint x="40" y="540" as="targetPoint" />
          </mxGeometry>
        </mxCell>
        <mxCell id="3K0jsrOyIcbmeQvyOcUT-9" value="게시글 보기" style="rounded=1;whiteSpace=wrap;html=1;" vertex="1" parent="1">
          <mxGeometry x="200" y="620" width="120" height="60" as="geometry" />
        </mxCell>
        <mxCell id="3K0jsrOyIcbmeQvyOcUT-23" style="rounded=0;orthogonalLoop=1;jettySize=auto;html=1;exitX=0;exitY=0.5;exitDx=0;exitDy=0;entryX=1;entryY=0.5;entryDx=0;entryDy=0;endArrow=none;endFill=0;" edge="1" parent="1" source="3K0jsrOyIcbmeQvyOcUT-10" target="3K0jsrOyIcbmeQvyOcUT-9">
          <mxGeometry relative="1" as="geometry" />
        </mxCell>
        <mxCell id="3K0jsrOyIcbmeQvyOcUT-10" value="게시글 쓰기, 수정, 삭제" style="rounded=1;whiteSpace=wrap;html=1;" vertex="1" parent="1">
          <mxGeometry x="440" y="620" width="120" height="60" as="geometry" />
        </mxCell>
        <mxCell id="3K0jsrOyIcbmeQvyOcUT-24" style="rounded=0;orthogonalLoop=1;jettySize=auto;html=1;exitX=0;exitY=0.5;exitDx=0;exitDy=0;endArrow=none;endFill=0;" edge="1" parent="1" source="3K0jsrOyIcbmeQvyOcUT-11">
          <mxGeometry relative="1" as="geometry">
            <mxPoint x="320" y="650" as="targetPoint" />
          </mxGeometry>
        </mxCell>
        <mxCell id="3K0jsrOyIcbmeQvyOcUT-11" value="댓글 조회, 쓰기, 수정, 삭제" style="rounded=1;whiteSpace=wrap;html=1;" vertex="1" parent="1">
          <mxGeometry x="440" y="690" width="120" height="60" as="geometry" />
        </mxCell>
        <mxCell id="3K0jsrOyIcbmeQvyOcUT-12" value="Actor" style="shape=umlActor;verticalLabelPosition=bottom;verticalAlign=top;html=1;outlineConnect=0;" vertex="1" parent="1">
          <mxGeometry x="60" y="420" width="30" height="60" as="geometry" />
        </mxCell>
        <mxCell id="3K0jsrOyIcbmeQvyOcUT-13" style="rounded=0;orthogonalLoop=1;jettySize=auto;html=1;exitX=0;exitY=0.5;exitDx=0;exitDy=0;entryX=0.5;entryY=0.5;entryDx=0;entryDy=0;entryPerimeter=0;endArrow=none;endFill=0;" edge="1" parent="1" source="3K0jsrOyIcbmeQvyOcUT-2" target="3K0jsrOyIcbmeQvyOcUT-12">
          <mxGeometry relative="1" as="geometry" />
        </mxCell>
        <mxCell id="3K0jsrOyIcbmeQvyOcUT-14" style="rounded=0;orthogonalLoop=1;jettySize=auto;html=1;exitX=0;exitY=0.5;exitDx=0;exitDy=0;entryX=0.5;entryY=0.5;entryDx=0;entryDy=0;entryPerimeter=0;endArrow=none;endFill=0;" edge="1" parent="1" source="3K0jsrOyIcbmeQvyOcUT-4" target="3K0jsrOyIcbmeQvyOcUT-12">
          <mxGeometry relative="1" as="geometry" />
        </mxCell>
        <mxCell id="3K0jsrOyIcbmeQvyOcUT-25" value="DB" style="html=1;dropTarget=0;whiteSpace=wrap;" vertex="1" parent="1">
          <mxGeometry x="892" y="260" width="180" height="90" as="geometry" />
        </mxCell>
      </root>
    </mxGraphModel>
  </diagram>
</mxfile>
